<?xml version="1.0" encoding="utf-8"?>
<!-- Generator: Adobe Illustrator 24.0.1, SVG Export Plug-In . SVG Version: 6.00 Build 0)  -->
<svg version="1.1" id="Layer_1" xmlns="http://www.w3.org/2000/svg" xmlns:xlink="http://www.w3.org/1999/xlink" x="0px" y="0px"
	 viewBox="0 0 1800 1800" style="enable-background:new 0 0 1800 1800;" xml:space="preserve">
<style type="text/css">
	.st0{fill:#FAC039;}
	.st1{fill:#058694;}
</style>
<g>
	<path class="st0" d="M1157.51,950.37c0-23.31,0.38-46.63-0.2-69.92c-0.22-8.62,2.94-12.96,10.48-16.7
		c53.16-26.39,106.06-53.32,159.16-79.83c13.14-6.56,22.97-15.23,22.81-31.02c-0.18-16.74-11.73-24.61-25.24-30.77
		c-68.12-31.11-136.19-62.31-204.3-93.42c-68.91-31.48-137.77-63.08-206.84-94.2c-14.6-6.58-28.44-0.75-42,5.6
		c-50.02,23.44-100.13,46.69-150.31,69.8c-80.44,37.05-160.96,73.92-241.44,110.89c-3.73,1.71-7.45,3.52-10.98,5.61
		c-21.09,12.51-21.41,40.48-0.04,52.39c13.93,7.77,28.63,14.25,43.33,20.5c7.04,3,9.6,7.12,9.19,14.56
		c-0.55,10.03-0.83,20.15-0.03,30.14c0.91,11.41-2.91,20.86-10.33,28.72c-16.97,17.98-13.54,38.98-7.75,59.19
		c2.67,9.35,3.86,17.19,0.58,26.16c-3.93,10.74-7.35,21.96-6.42,33.38c1.05,12.87-4.86,14.53-15.4,12.94
		c-18.49-2.79-37.04-4.86-55.75-6.2c-27.39-1.96-54.63-3.62-81.93,0.15c-8.32,1.15-12.73-1.39-13.33-10.47
		c-2.22-33.68-5.27-67.21-2.96-101.16c2.16-31.86,6.33-63.4,13.63-94.24c7.73-32.66,19.79-64.18,33.11-95.13
		c33.09-76.87,79.55-144.27,142.21-199.95c85.55-76.02,185.5-122.59,298.36-139.57c129.34-19.46,251.99,3.03,365.95,67.49
		c117.42,66.42,200.46,163.31,250.78,288.58c24.76,61.65,38.35,125.47,40.58,191.75c0.94,27.87-1.55,55.6-4.24,83.33
		c-0.74,7.63-3.18,10.46-10.84,9.79c-97.26-8.4-191.96,6.11-285.27,32.4c-10.54,2.97-15.42,2.36-14.79-10.9
		c1.11-23.26,0.31-46.6,0.31-69.91C1157.56,950.37,1157.53,950.37,1157.51,950.37z"/>
	<path class="st1" d="M919.14,1445.73c0-65.77,0.18-131.55-0.21-197.32c-0.05-9.17,2.92-15.09,9.8-20.93
		c79.53-67.59,170.92-112.14,270.65-140.99c80.32-23.24,162.18-34.07,245.71-32.64c38.72,0.66,38.62,0.73,39.79,38.63
		c3.53,114.16,0.71,228.34,1.64,342.5c0.08,10.24-3.59,13.91-13.48,13.64c-68.3-1.85-135.56,6-201.92,22.03
		c-44.9,10.85-88.66,25.14-131,43.66c-73.91,32.34-141.45,74.59-200.91,129.38c-2.35,2.16-4.61,4.54-7.3,6.19
		c-3.65,2.24-6.2,8.56-11.09,5.95c-3.69-1.97-1.57-7.51-1.57-11.41c-0.09-60.29-0.04-120.58-0.02-180.88c0-5.94,0-11.88,0-17.81
		C919.2,1445.73,919.17,1445.73,919.14,1445.73z"/>
	<path class="st1" d="M880.5,1658.8c-21.59-18.13-40.23-34.8-59.89-50.14c-96.81-75.56-206.5-122.61-326.61-146.19
		c-54.35-10.67-109.26-15.3-164.61-13.53c-10.63,0.34-14.07-2.5-14.03-13.59c0.43-121.06,0.47-242.12,0.16-363.18
		c-0.03-11.77,3.52-15.22,15.44-16.2c89.32-7.3,176.56,4.36,262.51,27.74c99.61,27.09,190.21,72.16,270.73,137.16
		c11.43,9.23,16.74,18.98,16.65,34.59c-0.73,128.82-0.38,257.65-0.35,386.47C880.5,1646.43,880.5,1650.93,880.5,1658.8z"/>
	<path class="st1" d="M212.77,1347.15c0-63.06-0.08-126.11,0.04-189.17c0.05-23.03,1.91-24.65,25.03-24.79
		c35.37-0.22,35.31-0.22,35.27,35.63c-0.12,97.33-0.21,194.65-0.27,291.98c-0.01,25,8.41,32.26,33.59,30.59
		c54.3-3.6,108-0.37,161.99,8.19c106.03,16.82,203.07,55.75,295.17,109.56c32.74,19.13,64.46,39.48,94.83,62.11
		c28.24,21.04,60.09,20.75,86.8-0.87c31.71-25.66,66.08-47.5,101.4-67.4c63.09-35.53,129.25-64.34,199.18-84.21
		c82.36-23.41,166.13-33.02,251.58-28.23c23.13,1.3,30.34-5.54,30.34-29.2c0.01-105.1,0.16-210.19-0.28-315.29
		c-0.05-10.96,3.07-14.34,13.71-13.35c9.97,0.92,20.1,0.57,30.14,0.23c9.61-0.32,14.42,4.54,15.66,13.41
		c0.63,4.49,0.52,9.11,0.52,13.67c-0.03,111.95-0.06,223.9-0.2,335.85c-0.02,17.69,0.03,35.41-1.12,53.05
		c-0.94,14.46-7.76,20.6-22.16,20.25c-20.06-0.49-40.11-1.88-60.14-3.28c-60.42-4.23-120.37,1.07-180.27,8.18
		c-104.24,12.38-204.01,41.5-301.23,80.17c-23.76,9.45-46.26,20.89-65.92,37.95c-31.85,27.64-66.71,32.08-98.7,6.91
		c-39.87-31.37-86.39-46.62-132.3-63.86c-88.24-33.14-179.61-53.19-273.29-63.62c-68.31-7.61-136.53-9.46-204.97-2.66
		c-27.89,2.77-34.58-3.55-34.58-31.27c0-63.51,0-127.03,0-190.54C212.65,1347.15,212.71,1347.15,212.77,1347.15z"/>
	<path class="st1" d="M590.15,795.82c0,26.84,0.18,51.03-0.13,75.2c-0.08,6.02,3.18,8.78,7.31,12.01
		c17.24,13.51,19.02,31.35,4.44,48c-4.05,4.63-3.48,9.03-2.56,13.9c3.45,18.34,7,36.66,10.58,54.98c3.54,18.1-3.6,28.77-21.66,31.9
		c-4.94,0.86-9.98,1.52-14.98,1.54c-29.2,0.15-40.05-14.42-32.83-42.83c3.46-13.63,5.98-27.53,8.41-41.39
		c1.42-8.11,3.16-15.14-6.08-22.35c-10.98-8.57-5.69-32.62,8.51-42.78c6.97-4.98,8.92-10.1,8.78-18.1
		c-0.45-25.12-0.43-50.25,0.02-75.36c0.13-7.03-2.22-10.7-8.58-13.21c-7.2-2.84-13.9-6.91-21.04-9.92c-4.48-1.89-8.57-3.9-8.33-9.32
		c0.23-5.12,5.31-5.87,8.79-7.48c30.9-14.31,61.9-28.41,92.86-42.58c87.94-40.24,175.9-80.42,263.74-120.88
		c6.9-3.18,12.76-2.87,19.33,0.06c105.22,46.93,210.47,93.79,315.72,140.65c15.35,6.84,30.75,13.58,46.09,20.45
		c4.83,2.16,11.98,2.93,12.01,9.49c0.03,6.77-6.85,9.05-12.1,11.5c-34.67,16.16-69.42,32.16-104.15,48.2
		c-0.41,0.19-0.88,0.25-1.3,0.44c-7.46,3.41-14.82,9.3-22.39,9.6c-9.02,0.35-7.91-11.89-13.55-17.21
		c-17.01-16.01-37.52-25.83-59.06-33.19c-73.31-25.05-148.74-30.05-225.47-22.92c-41.75,3.88-82.4,12.11-121.27,27.82
		c-22.78,9.21-46.11,18.18-57.79,42.86c-3.01,6.37-7.03,0.65-10.11-0.7C633.02,815.26,612.77,806.02,590.15,795.82z"/>
	<path class="st1" d="M690.68,909.79c0-21.79,0.37-43.58-0.18-65.35c-0.22-8.61,3.53-12.65,10.66-16.49
		c37.19-20.02,77.86-28.22,118.84-34.42c67.86-10.26,135.53-7.21,202.45,7.96c27.42,6.21,54.38,14.27,78.92,28.76
		c6.39,3.78,9.71,8.23,9.63,16.36c-0.42,42.94-0.4,85.89-0.07,128.84c0.09,10.94-2.32,14.29-14.23,11.2
		c-70.06-18.15-132.15-1.54-186.53,45.29c-7.34,6.32-12.26,6.6-19.66-0.15c-53.06-48.36-115.16-62.33-184.19-45.66
		c-13.02,3.14-15.84,0.58-15.41-11.92c0.73-21.45,0.2-42.94,0.2-64.41C690.96,909.79,690.82,909.79,690.68,909.79z"/>
	<path class="st0" d="M1704.67,993.82c-49.57-2.87-99.15-5.42-148.68-8.83c-14.62-1.01-22.27-11.2-21.27-24.75
		c1.06-14.26,9.22-22.4,24.35-21.74c58.71,2.52,117.41,5.42,176.08,8.66c14.12,0.78,23.48,12.81,22.18,26.25
		c-1.31,13.54-10.85,21.27-25.3,20.86c-9.11-0.26-18.23-0.05-27.34-0.05C1704.68,994.09,1704.67,993.95,1704.67,993.82z"/>
	<path class="st0" d="M1703.66,645.69c0.69,11.96-6.69,19.38-17.94,23.37c-51.49,18.27-103.03,36.41-154.63,54.38
		c-17.94,6.25-31.17,1.53-35.45-11.92c-4.95-15.57,2.47-28.52,20.17-34.7c51.62-18.03,103.24-36.04,154.91-53.89
		C1689.44,616.46,1703.98,626.21,1703.66,645.69z"/>
	<path class="st0" d="M93.46,650.41c-0.45-23.33,14.92-33.92,32.85-27.63c46.91,16.47,93.73,33.22,140.58,49.84
		c8.16,2.9,16.7,5.01,24.42,8.79c11.98,5.88,16.36,18.08,11.97,30c-4.34,11.76-13.67,16.57-27.34,14.42
		c-25.17-3.96-47.5-16.2-71.22-24.36c-31.48-10.83-62.78-22.17-94.2-33.17C99.34,664.4,93.66,656.73,93.46,650.41z"/>
	<path class="st0" d="M89.17,993.4c-6.37,0.3-12.76,0.5-19.12,0.92c-16.26,1.05-26.54-6.88-27.43-21.27
		c-0.92-14.81,8.98-25.48,25.07-26.44c30.92-1.84,61.87-3.3,92.79-5.16c26.39-1.59,52.75-3.65,79.22-3.17
		c15.15,0.28,24,8.95,24.12,23.48c0.11,13.45-8.53,22.57-23.16,23.43c-50.48,2.97-100.97,5.67-151.46,8.48
		C89.18,993.57,89.17,993.48,89.17,993.4z"/>
	<path class="st0" d="M1525.68,356.85c0.45,9.68-4.17,16.45-10.16,22.31c-39.16,38.35-78.28,76.74-117.74,114.78
		c-11.76,11.34-26.47,12.04-35.63,3.07c-10.15-9.94-9.64-23.94,2.68-36.25c39.41-39.38,79.21-78.38,118.82-117.56
		c8.68-8.59,18.81-11.16,30.11-6.7C1523.04,340.16,1526.32,347.9,1525.68,356.85z"/>
	<path class="st0" d="M297.57,334.5c7.47-0.64,13.89,3.18,19.68,8.86c39.68,38.93,79.49,77.71,119.08,116.73
		c11.05,10.89,12.09,26.27,3.15,35.37c-10.11,10.31-24.98,10.17-36.57-1.07c-39.54-38.33-78.84-76.91-118.33-115.3
		c-6.52-6.34-10.62-13.28-10.23-22.81C274.95,341.85,282,334.63,297.57,334.5z"/>
	<path class="st0" d="M661.57,320.66c0.15,12.86-4.87,21.24-16.81,24.32c-11.49,2.96-22.63-3.25-28.39-16.05
		c-12.35-27.46-24.48-55.03-36.59-82.6c-9.54-21.72-19.28-43.35-28.26-65.3c-6.04-14.76-1.24-27.56,10.82-32.2
		c13.5-5.19,25.62,0.16,32.02,14.44c20.89,46.62,41.71,93.28,62.5,139.95C659.47,309.04,662.31,314.87,661.57,320.66z"/>
	<path class="st0" d="M1140.18,321.78c0.35-5.29,1.33-10.53,3.62-15.66c20.8-46.6,41.42-93.28,62.08-139.94
		c7.43-16.76,19.49-23.18,32.97-17.55c13.18,5.51,17.91,19.43,10.8,36.08c-12.7,29.74-26.17,59.16-39.38,88.69
		c-8.7,19.45-17.07,39.07-26.41,58.21c-5.39,11.04-15.51,15.76-27.44,12.64C1145.67,341.45,1139.53,333.76,1140.18,321.78z"/>
	<path class="st0" d="M877.56,187.09c-0.02-26.48-0.1-52.96,0.01-79.44c0.06-14.89,5.87-22.5,17.26-23.22
		c16.69-1.06,27.25,6.42,27.92,21.94c1.02,23.7,0.74,47.46,0.79,71.19c0.07,29.22,0.08,58.44-0.21,87.66
		c-0.17,17.23-9.1,26.37-24.6,26.1c-13.53-0.23-21.04-9.36-21.12-26.16C877.49,239.14,877.58,213.12,877.56,187.09z"/>
</g>
</svg>
